<svg viewBox="0 0 511.999 511.999">
		<path d="M511.448,232.731c-4.649-51.893-24.799-100.541-58.206-140.521c-2.148-2.57-6.039-2.751-8.407-0.383L307.426,229.234    c-3.584,3.584-1.046,9.712,4.023,9.712h194.325C509.123,238.946,511.746,236.066,511.448,232.731z"/>
		<path d="M505.774,273.078H256.515c-4.271,0-8.732-1.663-12.067-4.999L68.195,91.826c-2.368-2.368-6.259-2.188-8.406,0.382    C21.425,138.118,0.527,195.455,0.527,256.012c0,141.483,114.491,255.987,255.987,255.987    c133.726,0,243.262-102.302,254.934-232.722C511.747,275.948,509.117,273.078,505.774,273.078z"/>
		<path d="M420.318,59.311c-94.466-78.937-232.796-79.225-327.607,0c-2.569,2.147-2.75,6.038-0.382,8.406l160.163,160.163    c2.222,2.221,5.823,2.221,8.045,0L420.701,67.717C423.068,65.349,422.889,61.458,420.318,59.311z"/>
</svg>